PathFileType	4	(X/Y/Z)	C:\Users\Basilio\Documents\Thesis Gigler\squatting_fais\c3dfiles\054\SLS_back_pre3\markers_experimental.trc
DataRate	CameraRate	NumFrames	NumMarkers	Units	OrigDataRate	OrigDataStartFrame	OrigNumFrames
200.000000	200.000000	4	61	mm	200.000000	1104	1472
Frame#	Time	FHD			LBHD			RBHD			C7			T10			CLAV			LSHO			LUUPA			LMUPA			LDUPA			LLEP			LMEP			LRAD			LUL			LRFIN			RSHO			RUPA1			RMUPA			RDUPA			RLEP			RMEP			RRAD			RUL			RUFIN			LASI			RASI			USACR			LSACR			RSACR			LTHI1			LTHI2			LTHI3			LTHI4			LLFC			LMFC			LTIB1			LTIB2			LTIB3			LTIB4			LLMAL			LMMAL			LHEE			LMT1			LMT2			LMT5			RTHI			RTHI2			RTHI3			RTHI4			RLFC			RMFC			RTIB1			RTIB2			RTIB3			RTIB4			RLMAL			RMMAL			RHEE			RMT1			RMT2			RMT5			
		X1	Y1	Z1	X2	Y2	Z2	X3	Y3	Z3	X4	Y4	Z4	X5	Y5	Z5	X6	Y6	Z6	X7	Y7	Z7	X8	Y8	Z8	X9	Y9	Z9	X10	Y10	Z10	X11	Y11	Z11	X12	Y12	Z12	X13	Y13	Z13	X14	Y14	Z14	X15	Y15	Z15	X16	Y16	Z16	X17	Y17	Z17	X18	Y18	Z18	X19	Y19	Z19	X20	Y20	Z20	X21	Y21	Z21	X22	Y22	Z22	X23	Y23	Z23	X24	Y24	Z24	X25	Y25	Z25	X26	Y26	Z26	X27	Y27	Z27	X28	Y28	Z28	X29	Y29	Z29	X30	Y30	Z30	X31	Y31	Z31	X32	Y32	Z32	X33	Y33	Z33	X34	Y34	Z34	X35	Y35	Z35	X36	Y36	Z36	X37	Y37	Z37	X38	Y38	Z38	X39	Y39	Z39	X40	Y40	Z40	X41	Y41	Z41	X42	Y42	Z42	X43	Y43	Z43	X44	Y44	Z44	X45	Y45	Z45	X46	Y46	Z46	X47	Y47	Z47	X48	Y48	Z48	X49	Y49	Z49	X50	Y50	Z50	X51	Y51	Z51	X52	Y52	Z52	X53	Y53	Z53	X54	Y54	Z54	X55	Y55	Z55	X56	Y56	Z56	X57	Y57	Z57	X58	Y58	Z58	X59	Y59	Z59	X60	Y60	Z60	X61	Y61	Z61	

1105	5.52	-111.6948699951172	1786.577758789063	-1082.943481445313	-275.1491699218751	1735.27392578125	-1150.250732421875	-289.9359130859376	1736.785278320313	-1010.436828613281	-332.9181518554688	1570.024047851563	-1068.647827148438	-394.6913452148439	1250.873657226563	-1054.928955078125	-192.2182769775391	1506.666870117188	-1077.0068359375	-266.1540527343751	1563.00439453125	-1224.126708984375	-119.4871597290039	1439.221069335938	-1344.799926757813	-85.99513244628908	1472.92724609375	-1331.483520507813	-51.59140014648439	1428.892333984375	-1354.525390625	7.754343986511232	1431.059814453125	-1351.386474609375	5.707915782928468	1366.107543945313	-1305.515380859375	253.7328643798829	1459.13671875	-1244.23974609375	278.8365173339844	1426.439208984375	-1310.973754882813	347.0035705566407	1482.167602539063	-1253.439086914063	-256.0488281250001	1568.064086914063	-930.444519042969	-105.0919189453125	1450.49951171875	-805.785583496094	-68.50771331787111	1478.570922851563	-820.0112304687502	-37.66457748413087	1430.437744140625	-798.140808105469	6.906858444213869	1421.764404296875	-802.1985473632815	-2.611242294311524	1364.46826171875	-852.0856933593752	259.0117187500001	1466.94091796875	-936.2066040039065	270.2760314941407	1435.089721679688	-863.2864379882815	336.7506713867188	1495.211059570313	-931.6355590820315	-238.5599212646485	1044.5322265625	-1158.2587890625	-241.6295471191407	1070.664794921875	-910.739929199219	-409.4236450195314	1171.00732421875	-1046.495361328125	-420.1871337890626	1138.721801757813	-1072.00048828125	-421.4449768066407	1142.740112304688	-1014.528503417969	-328.6892700195313	804.5109863281252	-1224.252075195313	-291.0862731933594	728.1585083007814	-1213.463500976563	-244.8279876708985	735.8557128906251	-1205.537353515625	-315.7571105957032	676.5371704101564	-1190.499267578125	-302.8060913085938	527.1717529296876	-1158.436889648438	-278.6692199707032	536.2932739257814	-1019.101501464844	-268.7023315429688	367.9379577636719	-1086.565307617188	-315.9822998046876	317.5897521972657	-1140.572875976563	-278.8048400878907	316.2706909179688	-1113.908447265625	-292.2288208007813	243.8624725341797	-1072.412963867188	-358.2442321777344	109.5814208984375	-1101.386596679688	-328.8842468261719	132.8219451904297	-1010.746948242188	-428.0394287109376	101.6797485351563	-1042.486450195313	-216.5589904785157	55.03332138061525	-1019.674743652344	-208.6682281494141	54.42405319213869	-1069.066284179688	-260.5880737304688	39.20017623901368	-1120.121459960938	-295.6811828613282	780.2458496093752	-799.6868286132815	-248.7718658447266	732.9164428710939	-792.7824707031252	-215.6459655761719	737.1651611328126	-797.979431152344	-265.4981079101563	650.6864624023439	-803.321228027344	-280.3451843261719	597.2051391601564	-811.8367309570315	-213.0734863281251	571.8198852539064	-933.1928710937502	-340.5630798339844	508.571746826172	-846.444274902344	-436.8273315429689	554.9888305664064	-833.602966308594	-428.0855102539064	511.7748413085939	-848.2949829101565	-463.4009399414064	490.0895080566407	-888.9226074218752	-645.5437011718751	505.7505187988282	-918.268493652344	-596.0363769531251	480.6948852539064	-996.555358886719	-654.2192993164064	573.5180053710939	-976.8926391601565	-670.4749145507814	356.3018493652344	-1024.551391601563	-684.0621948242189	347.3258666992188	-979.177917480469	-721.8341674804689	390.4215393066407	-939.0009765625002	
1106	5.525	-112.295768737793	1787.152954101563	-1082.538330078125	-276.0371704101563	1735.916625976563	-1150.024047851563	-290.9618835449219	1737.253540039063	-1010.271301269531	-333.6193847656251	1570.500732421875	-1068.75	-394.666961669922	1251.010131835938	-1055.09326171875	-192.8778381347657	1507.366577148438	-1076.89990234375	-266.8596801757813	1563.567626953125	-1224.02685546875	-120.0674285888672	1440.250244140625	-1344.695922851563	-86.65513610839845	1473.90087890625	-1331.299682617188	-52.06519317626955	1429.908081054688	-1354.31591796875	7.11625909805298	1432.036376953125	-1351.131713867188	5.395123958587647	1366.91259765625	-1305.171142578125	253.5222930908204	1459.92822265625	-1243.958129882813	278.3748474121094	1427.47314453125	-1310.754028320313	346.6452026367188	1483.148193359375	-1253.125732421875	-257.0605773925782	1568.589599609375	-930.335876464844	-105.990463256836	1451.018432617188	-805.5691528320315	-69.36174774169923	1479.236083984375	-819.9234619140627	-38.70091629028321	1431.044067382813	-797.8885498046877	6.127174854278566	1422.581909179688	-801.962341308594	-3.385731458663941	1365.334716796875	-851.9023437500002	258.5562744140626	1467.989501953125	-936.185241699219	269.1586303710938	1436.10546875	-862.828308105469	335.5587158203126	1496.429931640625	-931.2954711914065	-237.8511657714844	1044.97265625	-1158.249267578125	-241.0983886718751	1071.406494140625	-910.6189575195315	-409.3010559082032	1171.181884765625	-1046.54150390625	-419.8424682617189	1138.777099609375	-1072.011596679688	-420.9674682617189	1142.58935546875	-1014.532775878906	-328.5061950683594	804.8638916015627	-1223.880981445313	-291.0794982910157	728.3040771484376	-1213.1376953125	-244.4676513671876	735.6400146484376	-1204.994873046875	-316.1448669433594	676.8226928710939	-1190.105224609375	-303.6012573242188	527.2979736328126	-1158.0126953125	-279.6223449707032	536.3872680664064	-1018.754638671875	-269.2414550781251	368.3101806640626	-1086.379638671875	-316.6186218261719	317.6963195800782	-1140.240112304688	-279.2243041992188	316.6315002441407	-1113.700805664063	-292.5531005859376	244.0838470458985	-1072.291015625	-358.1774597167969	109.5182800292969	-1101.3359375	-328.9397277832032	132.7774353027344	-1010.649536132813	-428.0408020019532	101.6935653686524	-1042.437255859375	-216.5352783203126	55.04393768310548	-1019.622680664063	-208.6715545654297	54.42404174804689	-1069.091674804688	-260.5704040527344	39.19862747192384	-1120.06640625	-294.7537841796876	781.0858154296877	-799.2825317382815	-247.5761871337891	733.7739257812501	-792.4005126953127	-214.384262084961	738.0299072265626	-797.4029541015627	-264.3642883300782	651.4863891601564	-803.147155761719	-279.2917175292969	598.0997314453126	-811.2071533203127	-212.9471282958985	572.0716552734376	-932.0569458007815	-339.3655395507813	509.119110107422	-845.7978515625002	-435.5175170898439	555.4802856445314	-833.3211059570315	-426.4512939453126	512.0997314453126	-847.929626464844	-461.7981872558595	490.4293823242189	-888.254333496094	-644.2862548828126	506.0323486328126	-917.9686279296877	-594.5742187500001	481.0014648437501	-996.1136474609377	-652.8390502929689	573.7735595703126	-976.6174316406252	-668.7894287109376	356.3484191894532	-1024.491943359375	-682.5498046875001	347.5843200683594	-978.5230712890627	-720.1612548828126	390.6487731933595	-938.9644775390627	
1107	5.53	-113.2215805053711	1787.633911132813	-1081.940307617188	-276.7184448242188	1736.477294921875	-1149.9375	-291.6660461425782	1737.796630859375	-1010.276794433594	-334.4009094238282	1570.736938476563	-1068.69482421875	-394.6045227050782	1251.121948242188	-1055.279174804688	-193.6273803710938	1508.0859375	-1076.736938476563	-267.4613342285157	1564.016479492188	-1223.8798828125	-120.3067474365235	1440.970336914063	-1344.617065429688	-86.92451477050783	1474.851806640625	-1331.104736328125	-52.39332580566408	1430.847900390625	-1354.157958984375	6.741901874542238	1432.9599609375	-1350.982666015625	4.871004104614259	1367.632080078125	-1304.751708984375	253.0002593994141	1460.92138671875	-1243.63818359375	278.8716735839844	1428.410888671875	-1310.682983398438	346.1952514648438	1484.086547851563	-1252.8720703125	-257.9186401367188	1569.16748046875	-930.2427978515627	-106.7231979370117	1451.922119140625	-805.415954589844	-70.58799743652345	1479.784912109375	-819.5999145507815	-39.55167388916016	1431.755615234375	-797.6662597656252	5.488409996032716	1423.374389648438	-801.8740234375002	-4.242270946502686	1365.9609375	-851.652038574219	257.1726074218751	1469.292358398438	-935.781433105469	268.3518371582032	1437.159301757813	-862.6089477539065	334.4983215332032	1497.90966796875	-931.0240478515627	-237.7146759033204	1045.306762695313	-1157.98486328125	-240.6897430419922	1072.147705078125	-910.5276489257815	-409.1599121093751	1171.234619140625	-1046.551635742188	-419.587615966797	1138.6142578125	-1072.07958984375	-422.6798400878907	1142.810546875	-1014.205078125	-328.3808288574219	805.2600097656252	-1223.518798828125	-291.2375488281251	728.5281982421876	-1212.84423828125	-244.6439819335938	735.6864013671876	-1204.69482421875	-316.4721374511719	677.0858764648439	-1189.783813476563	-304.4612426757813	527.4204711914064	-1157.486694335938	-280.5352172851563	536.4669799804689	-1018.475708007813	-269.6864929199219	368.3424377441407	-1086.265869140625	-317.1177673339844	317.7754821777344	-1139.961669921875	-279.7292785644532	316.6918640136719	-1113.54052734375	-292.8705749511719	244.1655578613282	-1072.092163085938	-358.2763977050782	109.5601272583008	-1101.234130859375	-329.0398559570313	132.7509918212891	-1010.53662109375	-428.0410766601564	101.6929244995117	-1042.441040039063	-216.4692077636719	55.02895355224611	-1019.623107910156	-208.6609497070313	54.41032028198244	-1069.052490234375	-260.5330505371094	39.23872756958009	-1120.056030273438	-293.6814880371094	781.8006591796877	-798.9750976562502	-246.5973510742188	734.5834350585939	-791.951354980469	-213.6981201171876	738.8765869140626	-796.9105224609377	-263.1598205566407	652.1734008789064	-802.6671142578127	-277.7819519042969	598.8613281250001	-810.6692504882815	-211.5540008544922	572.9841918945314	-931.3442993164065	-337.6773986816407	509.8475646972657	-845.284851074219	-434.2968139648439	555.9537353515626	-832.643737792969	-424.8906860351564	512.6171264648439	-847.5916748046877	-460.1395568847657	490.7983703613282	-888.093688964844	-642.6022949218751	506.3356323242189	-917.6196289062502	-592.8603515625001	481.1425170898439	-995.8855590820315	-651.1390380859376	573.8593750000001	-976.375915527344	-666.8821411132814	356.5613708496094	-1024.363891601563	-680.7012329101564	347.6108703613282	-978.6419067382815	-718.3552246093751	390.7966613769532	-938.6656494140627	
1108	5.535	-113.9940261840821	1788.09765625	-1081.553955078125	-277.4856567382813	1737.058349609375	-1149.6640625	-292.7663574218751	1738.4033203125	-1009.973571777344	-335.3085327148438	1571.005004882813	-1068.677001953125	-394.6788024902345	1251.201293945313	-1055.352172851563	-194.4621582031251	1508.678833007813	-1076.537841796875	-268.1543579101563	1564.467163085938	-1223.835693359375	-120.6954116821289	1441.705932617188	-1344.54736328125	-87.45223999023439	1475.526000976563	-1330.918579101563	-52.71517181396486	1431.555541992188	-1353.888549804688	6.37858819961548	1433.868896484375	-1350.627685546875	4.38699769973755	1369.026611328125	-1304.960327148438	252.8128509521485	1461.970458984375	-1243.400512695313	278.0208740234376	1429.41552734375	-1310.179565429688	345.7860412597657	1485.1708984375	-1252.5908203125	-259.0012512207032	1569.640991210938	-930.1736450195315	-107.8203887939453	1452.352172851563	-805.1392822265627	-71.36045074462892	1480.348266601563	-819.364196777344	-40.38916778564454	1432.411865234375	-797.5096435546877	4.339841842651368	1423.953369140625	-801.4910278320315	-5.147654056549073	1366.617309570313	-851.268005371094	256.1957702636719	1470.355834960938	-935.2967529296877	267.3627014160157	1438.297485351563	-862.2929687500002	333.7977600097657	1498.943969726563	-930.6524047851565	-237.106430053711	1045.569458007813	-1157.94970703125	-240.3108978271485	1072.734741210938	-910.3919677734377	-408.9600830078126	1171.19775390625	-1046.615356445313	-419.7644042968751	1138.509765625	-1071.943603515625	-420.4950256347657	1142.674072265625	-1014.477844238281	-328.6303405761719	805.6226806640627	-1223.275146484375	-291.3766479492188	728.6434326171876	-1212.639770507813	-244.7798614501954	735.6508178710939	-1204.331787109375	-316.7263488769532	677.2664184570314	-1189.539916992188	-305.5271606445313	527.5949707031251	-1157.164672851563	-281.6954040527344	536.4947509765626	-1018.131469726563	-270.5276184082032	368.4619140625001	-1085.749755859375	-317.5625000000001	317.9136047363282	-1139.706909179688	-280.0205078125001	316.9619750976563	-1113.419799804688	-293.1715698242188	244.1625061035157	-1071.919555664063	-358.2121276855469	109.5475692749024	-1101.137084960938	-329.0864868164063	132.7198333740235	-1010.468811035156	-428.0370178222657	101.6838073730469	-1042.384765625	-216.4796142578126	55.01231384277345	-1019.623107910156	-208.6404266357422	54.41211700439455	-1069.014770507813	-260.5390014648438	39.23859786987305	-1120.001831054688	-292.7120056152344	782.3423461914065	-798.5487060546877	-245.5432434082032	735.2880859375001	-791.4888305664065	-212.5666656494141	739.4675292968751	-796.3437500000002	-262.1693420410157	652.8871459960939	-801.9207153320315	-276.5558471679688	599.3733520507814	-810.2661743164065	-210.002182006836	573.3364257812501	-930.840515136719	-336.2831726074219	510.5245056152345	-844.6560058593752	-432.6606445312501	556.5095825195314	-832.314636230469	-423.6142578125001	513.1931762695314	-846.692565917969	-458.724334716797	491.1964721679689	-887.4219360351565	-641.3929443359376	506.5331115722657	-917.3567504882815	-591.2841796875001	481.4289550781251	-995.6556396484377	-649.7901611328126	574.0735473632814	-976.0689086914065	-665.8866577148439	355.9465942382813	-1023.263122558594	-679.0570068359376	347.9565124511719	-978.009460449219	-716.7664794921876	390.7801208496095	-938.554138183594	
